<svg width="19" height="17" viewBox="0 0 19 17" fill="none" xmlns="http://www.w3.org/2000/svg">
<path fill-rule="evenodd" clip-rule="evenodd" d="M9.5 1.16648C7.16179 -0.571966 3.86274 -0.367261 1.75081 1.78059C-0.583604 4.15472 -0.583603 8.00393 1.75081 10.3781L7.38658 16.1097C8.55379 17.2968 10.4462 17.2968 11.6134 16.1097L17.2492 10.3781C19.5836 8.00393 19.5836 4.15472 17.2492 1.78059C15.1373 -0.367261 11.8382 -0.571966 9.5 1.16648ZM8.79553 3.2135C7.23925 1.63075 4.71603 1.63075 3.15975 3.2135C1.60348 4.79625 1.60348 7.3624 3.15975 8.94515L8.79553 14.6768C9.1846 15.0725 9.8154 15.0725 10.2045 14.6768L15.8402 8.94515C17.3965 7.3624 17.3965 4.79625 15.8402 3.2135C14.284 1.63075 11.7607 1.63075 10.2045 3.2135C9.8154 3.60919 9.1846 3.60919 8.79553 3.2135Z" fill="#44392E"/>
</svg>
